<svg xmlns="http://www.w3.org/2000/svg" viewBox="150 207 1364 510">
  <title>Terva</title>
  <desc>Terva lockup: hexagonal harness mark, Terva wordmark, and the tagline "Harness the wildcard".</desc>
  <rect x="150" y="207" width="1364" height="510" fill="#11100E"/>
  <g transform="translate(100 190) scale(0.54)">
    <g fill="#F5F1E8">
      <path d="M492 161.14L212 322.79L212 477L288 477L288 366.67L492 248.89Z"/>
      <path d="M532 161.14L812 322.79L812 477L736 477L736 366.67L532 248.89Z"/>
      <path d="M212 515L212 669.21L373.71 762.57L407.76 694.47L288 625.33L288 515Z"/>
      <path d="M812 515L812 669.21L650.29 762.57L616.24 694.47L736 625.33L736 515Z"/>
    </g>
    <g fill="#F29100">
      <rect x="488" y="387" width="48" height="218"/>
      <rect x="488" y="387" width="48" height="218" transform="rotate(60 512 496)"/>
      <rect x="488" y="387" width="48" height="218" transform="rotate(-60 512 496)"/>
    </g>
    <path d="M442.47 702L581.53 702A4 4 0 0 1 585.11 704.21L636.76 807.53A10 10 0 0 1 627.82 822L396.18 822A10 10 0 0 1 387.24 807.53L438.89 704.21A4 4 0 0 1 442.47 702Z" fill="#FDB515"/>
  </g>
  <g fill="#F5F1E8">
    <!-- T: floating crossbar (gap motif), 45deg cut under right end -->
    <path d="M615 334H803V350L789 364H615Z"/>
    <rect x="694" y="382" width="30" height="170"/>
    <!-- e: one path; midbar hangs from right side, slit to left spine and above bottom-right stub -->
    <path d="M820 393L926 393L946 413L946 484L848 484L848 456L916 456L916 443L896 423L850 423L830 443L830 502L850 522L896 522L916 502L946 502L946 532L926 552L820 552L800 532L800 413Z"/>
    <!-- r: stem + detached arm with 45deg elbow terminal -->
    <rect x="982" y="393" width="30" height="159"/>
    <path d="M1030 393L1092 393L1116 417L1116 447L1086 447L1086 433L1076 423L1030 423Z"/>
    <!-- v: truncated apex -->
    <path d="M1136 393L1167 393L1210 541.6L1253 393L1284 393L1238 552L1182 552Z"/>
    <!-- a: segmented ring + midbar; counter below midbar via evenodd -->
    <path fill-rule="evenodd" d="M1322 393L1428 393L1448 413L1448 532L1428 552L1322 552L1302 532L1302 456L1418 456L1418 443L1398 423L1352 423L1332 438L1302 438L1302 413Z M1332 486L1418 486L1418 502L1398 522L1352 522L1332 502Z"/>
  </g>
  <!-- rule with 45deg lead-in + amber terminal cursor -->
  <path d="M618 568L645 595H1378" stroke="#7A7979" stroke-width="5" fill="none"/>
  <rect x="1396" y="589" width="54" height="12" fill="#FDB515"/>
  <!-- tagline: JetBrains Mono Regular 48px, outlined -->
  <path fill="#7A7979" d="M701.78 653L697.46 653L697.46 617.96L701.78 617.96L701.78 632.94L713.02 632.94L713.02 617.96L717.34 617.96L717.34 653L713.02 653L713.02 636.87L701.78 636.87L701.78 653M733.90 653.48Q729.82 653.48 727.42 651.20Q725.02 648.92 725.02 645.22Q725.02 642.78 726.12 640.95Q727.22 639.13 729.19 638.10Q731.16 637.06 733.70 637.06L741.86 637.06L741.86 635Q741.86 629.86 736.25 629.86Q733.75 629.86 732.22 630.78Q730.68 631.69 730.58 633.32L726.26 633.32Q726.50 630.20 729.17 628.16Q731.83 626.12 736.25 626.12Q741.05 626.12 743.62 628.42Q746.18 630.73 746.18 634.86L746.18 653L741.91 653L741.91 648.20L741.82 648.20Q741.43 650.65 739.37 652.06Q737.30 653.48 733.90 653.48M734.95 649.83Q738.12 649.83 739.99 648.30Q741.86 646.76 741.86 644.12L741.86 640.42L734.18 640.42Q732.07 640.42 730.75 641.70Q729.43 642.97 729.43 645.08Q729.43 647.29 730.90 648.56Q732.36 649.83 734.95 649.83M760.30 653L755.98 653L755.98 626.60L760.30 626.60L760.30 631.64L760.39 631.64Q760.73 629.10 762.55 627.61Q764.38 626.12 767.45 626.12Q771.58 626.12 773.81 628.59Q776.04 631.06 776.04 635.62L776.04 637.88L771.72 637.88L771.72 635.62Q771.72 629.86 766.10 629.86Q763.27 629.86 761.78 631.50Q760.30 633.13 760.30 636.20L760.30 653M788.14 653L783.82 653L783.82 626.60L788.14 626.60L788.14 631.64L788.18 631.64Q788.52 629 790.34 627.56Q792.17 626.12 795.19 626.12Q799.18 626.12 801.53 628.57Q803.88 631.02 803.88 635.24L803.88 653L799.56 653L799.56 636.01Q799.56 632.98 798.05 631.38Q796.54 629.77 793.94 629.77Q791.26 629.77 789.70 631.45Q788.14 633.13 788.14 636.20L788.14 653M822.60 653.48Q817.94 653.48 815.09 650.67Q812.23 647.86 812.23 642.92L812.23 636.68Q812.23 631.74 815.09 628.93Q817.94 626.12 822.60 626.12Q825.72 626.12 828.05 627.37Q830.38 628.62 831.67 630.87Q832.97 633.13 832.97 636.20L832.97 640.90L816.46 640.90L816.46 643.40Q816.46 646.33 818.14 648.03Q819.82 649.74 822.60 649.74Q825 649.74 826.56 648.80Q828.12 647.86 828.46 646.28L832.78 646.28Q832.34 649.59 829.56 651.54Q826.78 653.48 822.60 653.48M816.46 636.20L816.46 637.54L828.74 637.54L828.74 636.20Q828.74 633.08 827.14 631.38Q825.53 629.67 822.60 629.67Q819.67 629.67 818.06 631.38Q816.46 633.08 816.46 636.20M852.46 653.38L850.34 653.38Q845.93 653.38 843.50 651.39Q841.08 649.40 841.08 645.75L845.40 645.75Q845.40 647.58 846.70 648.61Q847.99 649.64 850.34 649.64L852.46 649.64Q854.86 649.64 856.18 648.58Q857.50 647.53 857.50 645.61Q857.50 642.20 854.38 641.77L847.08 640.71Q844.39 640.33 842.90 638.48Q841.42 636.63 841.42 633.61Q841.42 630.15 843.79 628.18Q846.17 626.22 850.34 626.22L852.46 626.22Q856.30 626.22 858.72 628.11Q861.14 630.01 861.34 633.08L856.97 633.08Q856.87 631.69 855.65 630.78Q854.42 629.86 852.46 629.86L850.34 629.86Q848.14 629.86 846.89 630.87Q845.64 631.88 845.64 633.61Q845.64 636.39 848.18 636.78L855 637.74Q861.72 638.70 861.72 645.61Q861.72 649.30 859.30 651.34Q856.87 653.38 852.46 653.38M881.26 653.38L879.14 653.38Q874.73 653.38 872.30 651.39Q869.88 649.40 869.88 645.75L874.20 645.75Q874.20 647.58 875.50 648.61Q876.79 649.64 879.14 649.64L881.26 649.64Q883.66 649.64 884.98 648.58Q886.30 647.53 886.30 645.61Q886.30 642.20 883.18 641.77L875.88 640.71Q873.19 640.33 871.70 638.48Q870.22 636.63 870.22 633.61Q870.22 630.15 872.59 628.18Q874.97 626.22 879.14 626.22L881.26 626.22Q885.10 626.22 887.52 628.11Q889.94 630.01 890.14 633.08L885.77 633.08Q885.67 631.69 884.45 630.78Q883.22 629.86 881.26 629.86L879.14 629.86Q876.94 629.86 875.69 630.87Q874.44 631.88 874.44 633.61Q874.44 636.39 876.98 636.78L883.80 637.74Q890.52 638.70 890.52 645.61Q890.52 649.30 888.10 651.34Q885.67 653.38 881.26 653.38M948.12 653L940.44 653Q937.18 653 935.21 651.10Q933.24 649.21 933.24 646.04L933.24 630.54L925.66 630.54L925.66 626.60L933.24 626.60L933.24 619.16L937.56 619.16L937.56 626.60L948.36 626.60L948.36 630.54L937.56 630.54L937.56 646.04Q937.56 647.38 938.35 648.22Q939.14 649.06 940.44 649.06L948.12 649.06L948.12 653M960.94 653L956.62 653L956.62 617.96L960.94 617.96L960.94 631.64L960.98 631.64Q961.32 629 963.14 627.56Q964.97 626.12 967.99 626.12Q971.98 626.12 974.33 628.57Q976.68 631.02 976.68 635.24L976.68 653L972.36 653L972.36 635.96Q972.36 632.98 970.85 631.38Q969.34 629.77 966.74 629.77Q964.06 629.77 962.50 631.45Q960.94 633.13 960.94 636.20L960.94 653M995.40 653.48Q990.74 653.48 987.89 650.67Q985.03 647.86 985.03 642.92L985.03 636.68Q985.03 631.74 987.89 628.93Q990.74 626.12 995.40 626.12Q998.52 626.12 1000.85 627.37Q1003.18 628.62 1004.47 630.87Q1005.77 633.13 1005.77 636.20L1005.77 640.90L989.26 640.90L989.26 643.40Q989.26 646.33 990.94 648.03Q992.62 649.74 995.40 649.74Q997.80 649.74 999.36 648.80Q1000.92 647.86 1001.26 646.28L1005.58 646.28Q1005.14 649.59 1002.36 651.54Q999.58 653.48 995.40 653.48M989.26 636.20L989.26 637.54L1001.54 637.54L1001.54 636.20Q1001.54 633.08 999.94 631.38Q998.33 629.67 995.40 629.67Q992.47 629.67 990.86 631.38Q989.26 633.08 989.26 636.20M1049.16 653L1044.41 653L1040.09 626.60L1043.83 626.60L1046.52 645.22Q1046.66 646.28 1046.81 647.55Q1046.95 648.82 1047 649.64Q1047.10 648.82 1047.22 647.55Q1047.34 646.28 1047.53 645.22L1050.84 626.60L1055.16 626.60L1058.47 645.22Q1058.66 646.28 1058.83 647.55Q1059 648.82 1059.05 649.64Q1059.14 648.82 1059.29 647.55Q1059.43 646.28 1059.58 645.22L1062.36 626.60L1065.91 626.60L1061.40 653L1056.65 653L1053.62 634.76Q1053.43 633.42 1053.26 631.90Q1053.10 630.39 1053 629.58Q1052.95 630.39 1052.76 631.90Q1052.57 633.42 1052.33 634.76L1049.16 653M1094.04 653L1071.48 653L1071.48 649.06L1080.84 649.06L1080.84 630.54L1072.44 630.54L1072.44 626.60L1085.16 626.60L1085.16 649.06L1094.04 649.06L1094.04 653M1082.52 621.85Q1080.94 621.85 1080.02 621.03Q1079.11 620.22 1079.11 618.82Q1079.11 617.38 1080.02 616.54Q1080.94 615.70 1082.52 615.70Q1084.10 615.70 1085.02 616.54Q1085.93 617.38 1085.93 618.82Q1085.93 620.22 1085.02 621.03Q1084.10 621.85 1082.52 621.85M1122.60 653L1114.44 653Q1110.94 653 1108.85 650.96Q1106.76 648.92 1106.76 645.56L1106.76 621.90L1097.64 621.90L1097.64 617.96L1111.08 617.96L1111.08 645.56Q1111.08 647.19 1111.99 648.13Q1112.90 649.06 1114.44 649.06L1122.60 649.06L1122.60 653M1137.86 653.48Q1133.93 653.48 1131.55 650.84Q1129.18 648.20 1129.18 643.69L1129.18 635.96Q1129.18 631.40 1131.53 628.76Q1133.88 626.12 1137.86 626.12Q1140.84 626.12 1142.78 627.61Q1144.73 629.10 1145.11 631.64L1145.16 631.64L1145.06 625.64L1145.06 617.96L1149.38 617.96L1149.38 653L1145.06 653L1145.06 647.96L1145.02 647.96Q1144.68 650.55 1142.76 652.02Q1140.84 653.48 1137.86 653.48M1139.30 649.74Q1141.99 649.74 1143.53 648.06Q1145.06 646.38 1145.06 643.40L1145.06 636.20Q1145.06 633.22 1143.53 631.54Q1141.99 629.86 1139.30 629.86Q1136.57 629.86 1135.03 631.28Q1133.50 632.70 1133.50 635.96L1133.50 643.64Q1133.50 646.86 1135.03 648.30Q1136.57 649.74 1139.30 649.74M1168.58 653.48Q1163.78 653.48 1160.90 650.79Q1158.02 648.10 1158.02 643.40L1158.02 636.20Q1158.02 631.50 1160.90 628.81Q1163.78 626.12 1168.58 626.12Q1173.14 626.12 1175.95 628.57Q1178.76 631.02 1178.90 635.24L1174.58 635.24Q1174.44 632.70 1172.86 631.33Q1171.27 629.96 1168.58 629.96Q1165.75 629.96 1164.05 631.57Q1162.34 633.18 1162.34 636.15L1162.34 643.40Q1162.34 646.38 1164.05 648.01Q1165.75 649.64 1168.58 649.64Q1171.27 649.64 1172.86 648.25Q1174.44 646.86 1174.58 644.36L1178.90 644.36Q1178.76 648.58 1175.95 651.03Q1173.14 653.48 1168.58 653.48M1194.70 653.48Q1190.62 653.48 1188.22 651.20Q1185.82 648.92 1185.82 645.22Q1185.82 642.78 1186.92 640.95Q1188.02 639.13 1189.99 638.10Q1191.96 637.06 1194.50 637.06L1202.66 637.06L1202.66 635Q1202.66 629.86 1197.05 629.86Q1194.55 629.86 1193.02 630.78Q1191.48 631.69 1191.38 633.32L1187.06 633.32Q1187.30 630.20 1189.97 628.16Q1192.63 626.12 1197.05 626.12Q1201.85 626.12 1204.42 628.42Q1206.98 630.73 1206.98 634.86L1206.98 653L1202.71 653L1202.71 648.20L1202.62 648.20Q1202.23 650.65 1200.17 652.06Q1198.10 653.48 1194.70 653.48M1195.75 649.83Q1198.92 649.83 1200.79 648.30Q1202.66 646.76 1202.66 644.12L1202.66 640.42L1194.98 640.42Q1192.87 640.42 1191.55 641.70Q1190.23 642.97 1190.23 645.08Q1190.23 647.29 1191.70 648.56Q1193.16 649.83 1195.75 649.83M1221.10 653L1216.78 653L1216.78 626.60L1221.10 626.60L1221.10 631.64L1221.19 631.64Q1221.53 629.10 1223.35 627.61Q1225.18 626.12 1228.25 626.12Q1232.38 626.12 1234.61 628.59Q1236.84 631.06 1236.84 635.62L1236.84 637.88L1232.52 637.88L1232.52 635.62Q1232.52 629.86 1226.90 629.86Q1224.07 629.86 1222.58 631.50Q1221.10 633.13 1221.10 636.20L1221.10 653M1253.06 653.48Q1249.13 653.48 1246.75 650.84Q1244.38 648.20 1244.38 643.69L1244.38 635.96Q1244.38 631.40 1246.73 628.76Q1249.08 626.12 1253.06 626.12Q1256.04 626.12 1257.98 627.61Q1259.93 629.10 1260.31 631.64L1260.36 631.64L1260.26 625.64L1260.26 617.96L1264.58 617.96L1264.58 653L1260.26 653L1260.26 647.96L1260.22 647.96Q1259.88 650.55 1257.96 652.02Q1256.04 653.48 1253.06 653.48M1254.50 649.74Q1257.19 649.74 1258.73 648.06Q1260.26 646.38 1260.26 643.40L1260.26 636.20Q1260.26 633.22 1258.73 631.54Q1257.19 629.86 1254.50 629.86Q1251.77 629.86 1250.23 631.28Q1248.70 632.70 1248.70 635.96L1248.70 643.64Q1248.70 646.86 1250.23 648.30Q1251.77 649.74 1254.50 649.74"/>
</svg>
